inDegrees=yes
name=ik_S50_A02_T02
DataType=double
version=3
OpenSimVersion=4.3-2021-08-27-4bc7ad9
endheader
time	pelvis_tilt	pelvis_list	pelvis_rotation	pelvis_tx	pelvis_ty	pelvis_tz	hip_flexion_r	hip_adduction_r	hip_rotation_r	knee_angle_r	knee_angle_r_beta	ankle_angle_r	subtalar_angle_r	mtp_angle_r	hip_flexion_l	hip_adduction_l	hip_rotation_l	knee_angle_l	knee_angle_l_beta	ankle_angle_l	subtalar_angle_l	mtp_angle_l	lumbar_extension	lumbar_bending	lumbar_rotation	arm_flex_r	arm_add_r	arm_rot_r	elbow_flex_r	pro_sup_r	wrist_flex_r	wrist_dev_r	arm_flex_l	arm_add_l	arm_rot_l	elbow_flex_l	pro_sup_l	wrist_flex_l	wrist_dev_l
10.69999999999986	-1.176240334220152	-4.148462682780083	-78.11316020868698	0	0.9399999999999999	0	12.13622122895204	-1.620592247539898	-9.43142897271705	5.881573072824843	0.1026528153174337	0	0	0	-4.47328739383235	-4.20168360765061	-0.08711075177383013	24.34184897954339	0.424845410716254	0	0	0	0	0	0	24.21602221514874	-24.21602221514874	3.677389795707696	66.72904055689398	86.32261041310448	0	0	24.21602221514874	-24.21602221514874	3.677389795707696	66.72904055689398	86.32261041285749	0	0
10.71999999999986	-1.40796851904913	-3.991041917109684	-78.35284302840795	0	0.9399999999999999	0	13.01868779227243	-1.671841453199501	-9.52991257584779	5.45362522264073	0.09518371630488953	0	0	0	-5.047478245408487	-5.229695567639933	-1.059235398132629	19.8667190710785	0.3467396593590693	0	0	0	0	0	0	24.22426554702306	-24.22426554702306	3.678412752247993	66.7436923063033	86.32158745661995	0	0	24.22426554702306	-24.22426554702306	3.678412752247993	66.7436923063033	86.32158745637295	0	0
10.73999999999986	-1.376540186625688	-3.832465688256154	-79.06625422252303	0	0.9399999999999999	0	13.89527177358996	-1.758257125125429	-9.33635105376058	5.064485114342228	0.08839194016351336	0	0	0	-5.209397882568447	-5.195000531488725	-1.245986704409338	19.66730601691358	0.3432592449924335	0	0	0	0	0	0	24.22673195293334	-24.22673195293334	3.678721080295964	66.74811221230836	86.32127912858873	0	0	24.22673195293334	-24.22673195293334	3.678721080295964	66.74811221230836	86.32127912834177	0	0
10.75999999999986	-1.156758069277292	-3.765565562009045	-79.25884738753106	0	0.9399999999999999	0	14.48194802673	-2.092508118705835	-10.07477972857233	4.438520682158174	0.07746679982152486	0	0	0	-4.796548074469622	-4.580290575165814	-0.2512301421595026	16.71916468016078	0.2918044718519502	0	0	0	0	0	0	24.23708799462918	-24.23708799462918	3.680016197104566	66.76667725190188	86.31998401185052	0	0	24.23708799462918	-24.23708799462918	3.680016197104566	66.76667725190188	86.31998401160386	0	0
10.77999999999986	-0.532120782640553	-3.385170353192195	-79.50185733557768	0	0.9399999999999999	0	15.08830803448043	-2.911032040682368	-11.14103210753576	4.43770278599391	0.07745252484051902	0	0	0	-3.884521851161761	-3.319971419348734	1.490162485225262	15.73267523090585	0.2745869829262662	0	0	0	0	0	0	24.24913714019731	-24.24913714019731	3.681523158397587	66.78827780054328	86.31847705063952	0	0	24.24913714019731	-24.24913714019731	3.681523158397587	66.78827780054328	86.31847705039308	0	0
10.79999999999986	0.1273847413464483	-2.924105472092185	-79.60199769819201	0	0.9399999999999999	0	15.44333259696985	-3.993831169375607	-12.91336010928848	3.549835245175955	0.06195631293166057	0	0	0	-3.160696634677455	-1.554351616524057	3.652825920522207	14.43977622029881	0.2520216382953963	0	0	0	0	0	0	24.26547821204791	-24.26547821204791	3.683535907845923	66.81707353334806	86.31646430130048	0	0	24.26547821204791	-24.26547821204791	3.683535907845923	66.81707353334806	86.31646430105437	0	0
10.81999999999986	0.5643859217888276	-2.568206472991366	-79.87153924303212	0	0.9399999999999999	0	15.56661606852895	-4.75663517293245	-15.00953996172639	2.647079951788395	0.04620026072224026	0	0	0	-2.813397247077623	-0.792571066270223	3.684184245960135	13.35988207376748	0.2331739298654105	0	0	0	0	0	0	24.272825306776	-24.272825306776	3.684495849322077	66.83089281800733	86.31550435987685	0	0	24.272825306776	-24.272825306776	3.684495849322077	66.83089281800733	86.31550435963088	0	0
10.83999999999986	0.881131493667019	-2.263939436482186	-81.09883595064493	0	0.9399999999999999	0	15.85360902015292	-5.048949188916557	-16.30819918490501	2.039278545383203	0.03559212498221749	0	0	0	-2.240091006621935	0.1724447941806082	4.263078399981972	12.49916479442356	0.2181515794120513	0	0	0	0	0	0	24.30656635245784	-24.30656635245784	3.688285993206509	66.88451637944536	86.31171421619537	0	0	24.30656635245784	-24.30656635245784	3.688285993206509	66.88451637944536	86.3117142159501	0	0
10.85999999999986	1.101503559740949	-2.145510369424658	-81.78739404981164	0	0.9399999999999999	0	16.32052618860556	-5.185256463603408	-17.55987147203107	1.943777750649606	0.03392532167584498	0	0	0	-1.347343289388811	0.6788051824245834	3.604426067353319	12.52272561581393	0.2185627933197876	0	0	0	0	0	0	24.31124455851111	-24.31124455851111	3.688868439511913	66.89285772474084	86.31113176992166	0	0	24.31124455851111	-24.31124455851111	3.688868439511913	66.89285772474084	86.31113176967646	0	0
10.87999999999986	1.29112381733583	-2.128866056264189	-82.1079075842182	0	0.9399999999999999	0	16.93085118361682	-5.271534150038288	-18.29408161978258	2.967520368310387	0.05179300104701104	0	0	0	-0.5674234025772731	0.8253690900100159	3.117754492266477	12.7669669499415	0.2228256087697772	0	0	0	0	0	0	24.3169673378241	-24.3169673378241	3.689581399916733	66.90306884741548	86.31041880955567	0	0	24.3169673378241	-24.3169673378241	3.689581399916733	66.90306884741548	86.31041880931055	0	0
10.89999999999986	1.672908651263649	-2.122376881525833	-82.55197155293867	0	0.9399999999999999	0	17.82257790759801	-4.988382910650603	-21.48894622916487	7.787294607486992	0.1359139307234475	0	0	0	0.2082292811367299	1.373510865760704	4.1930223457202	12.70876580059793	0.2218098070852871	0	0	0	0	0	0	24.39939066473487	-24.39939066473487	3.698513813104565	67.02885763920058	86.30148639684329	0	0	24.39939066473487	-24.39939066473487	3.698513813104565	67.02885763920058	86.3014863965999	0	0
10.91999999999986	1.842890888550701	-1.961466691881895	-82.83118114426932	0	0.9399999999999999	0	18.77170254088511	-4.605647004770989	-21.25616552032843	8.339007389683649	0.1455431352981175	0	0	0	1.005750338250458	2.186787827071376	5.835576496803101	12.08244583730486	0.2108784615548529	0	0	0	0	0	0	24.40727292922467	-24.40727292922467	3.699493700625363	67.04288290957608	86.30050650937577	0	0	24.40727292922467	-24.40727292922467	3.699493700625363	67.04288290957608	86.30050650913252	0	0
10.93999999999986	1.837176161908303	-2.13602706731234	-82.9340872216937	0	0.9399999999999999	0	18.85230133852675	-4.909412296124756	-19.81682795306918	12.66546018565761	0.2210539815199776	0	0	0	2.288815967865626	2.21867884734175	5.112195268885875	12.68424759367805	0.2213818836478498	0	0	0	0	0	0	24.60117485830397	-24.60117485830397	3.720126582945389	67.33272890849257	86.27987362815051	0	0	24.60117485830397	-24.60117485830397	3.720126582945389	67.33272890849257	86.27987362791112	0	0
10.95999999999986	1.652904047270229	-2.528289867499634	-83.04652192855235	0	0.9399999999999999	0	18.44248430972467	-5.214995677550596	-18.21414974817817	15.76100956359154	0.2750815103229871	0	0	0	1.89538633489361	1.987467875566232	4.9314925449307	11.6441128236209	0.2032281072458784	0	0	0	0	0	0	24.71174139823528	-24.71174139823528	3.731877748843619	67.49777289342525	86.26812246287568	0	0	24.71174139823528	-24.71174139823528	3.731877748843619	67.49777289342525	86.26812246263846	0	0
